<?xml version="1.0" standalone="no"?>
<!DOCTYPE svg PUBLIC "-//W3C//DTD SVG 20010904//EN"
 "http://www.w3.org/TR/2001/REC-SVG-20010904/DTD/svg10.dtd">
<svg version="1.0" xmlns="http://www.w3.org/2000/svg"
 width="1280.000000pt" height="1280.000000pt" viewBox="0 0 1280.000000 1280.000000"
 preserveAspectRatio="xMidYMid meet">
<metadata>
Created by potrace 1.14, written by Peter Selinger 2001-2017
</metadata>
<g transform="translate(0.000000,1280.000000) scale(0.100000,-0.100000)"
fill="#000000" stroke="none">
<path d="M10175 10063 c-314 -18 -638 -142 -1069 -410 -66 -41 -122 -70 -126
-66 -30 36 -86 123 -106 164 -20 41 -33 54 -71 71 -29 13 -57 18 -77 15 -30
-5 -419 -202 -651 -329 -264 -145 -509 -301 -750 -476 -185 -135 -281 -219
-453 -397 -91 -94 -153 -152 -156 -144 -2 8 -9 43 -15 79 -18 106 -71 223
-133 290 -13 14 -88 84 -168 155 -324 290 -729 662 -790 726 -109 114 -215
147 -375 116 -176 -34 -342 -115 -656 -323 -161 -106 -195 -139 -210 -202 -14
-62 32 -132 87 -132 19 0 515 -370 522 -390 2 -5 -66 -100 -150 -212 -84 -113
-238 -326 -343 -475 l-190 -270 -135 -45 c-269 -90 -483 -212 -660 -376 -105
-98 -130 -137 -130 -202 0 -34 6 -48 34 -76 22 -22 44 -34 61 -34 30 0 205
-87 205 -102 0 -5 -60 -83 -132 -171 -408 -498 -802 -868 -1119 -1051 -39 -22
-48 -33 -53 -64 -4 -20 -9 -49 -12 -64 -5 -26 -4 -26 24 -16 76 29 85 -34 9
-70 -50 -24 -60 -39 -72 -111 -7 -40 -6 -43 11 -36 11 4 30 10 44 12 21 3 715
-227 1155 -384 123 -44 115 -45 248 11 185 76 323 159 490 293 38 30 71 53 74
50 2 -3 0 -36 -6 -74 -19 -113 -26 -436 -11 -549 39 -311 176 -526 390 -613
30 -12 100 -29 155 -37 103 -15 390 -96 830 -234 138 -43 277 -83 309 -89 159
-29 316 4 380 79 20 25 26 42 26 82 0 95 -23 113 -255 193 -69 25 -118 48
-134 64 -40 43 -99 139 -122 200 -37 98 -39 391 -3 391 19 0 221 -77 414 -158
138 -58 165 -66 250 -73 225 -20 502 66 790 246 38 24 78 38 128 47 l73 12
347 -172 c354 -175 448 -214 607 -250 206 -47 482 -54 660 -17 490 102 932
422 1193 865 254 431 276 932 56 1260 -24 36 -82 112 -129 170 l-85 105 0 61
c0 131 48 202 225 334 166 123 350 284 436 381 78 88 161 195 178 228 8 14 18
122 27 285 7 143 18 329 24 411 5 83 12 182 15 220 l4 70 -176 350 c-97 193
-220 437 -274 542 -55 106 -99 204 -99 218 0 21 -9 29 -47 46 -83 36 -228 58
-338 52z m-3005 -2999 c0 -15 -162 -340 -219 -439 -92 -159 -234 -373 -337
-505 -168 -216 -431 -467 -555 -531 -30 -15 -39 -16 -39 -6 0 20 106 398 204
726 92 308 100 325 202 426 102 102 154 131 289 165 142 36 286 88 375 135 67
35 80 39 80 29z m1702 -373 c98 -82 129 -91 232 -65 53 13 73 14 92 5 14 -6
61 -11 106 -11 l80 0 -7 -57 c-20 -170 -77 -325 -173 -472 -241 -371 -573
-616 -970 -717 -92 -23 -271 -38 -286 -23 -12 12 25 93 73 158 167 228 310
472 525 896 77 151 123 230 166 283 33 39 65 72 70 72 5 0 46 -31 92 -69z"/>
</g>
</svg>
